<svg xmlns="http://www.w3.org/2000/svg" width="20" height="20" viewBox="0 0 20 20" fill="none">
<path fill-rule="evenodd" clip-rule="evenodd" d="M7.60364 10.4992L12.8043 8.26552C13.2264 8.08422 13.4219 7.59432 13.241 7.1713C13.0601 6.74827 12.5712 6.55231 12.1491 6.73361L6.48535 9.1662H6.65593C7.0523 9.1662 7.39358 9.44658 7.47131 9.8361L7.60364 10.4992Z" fill="#FFFEFE"/>
<path fill-rule="evenodd" clip-rule="evenodd" d="M16.6641 4.17721L3.63456 8.28728C3.43176 8.35126 3.30393 8.54174 3.33315 8.81374C3.34706 8.94332 3.39679 9.037 3.44626 9.0884C3.48404 9.12766 3.54179 9.16659 3.66383 9.16659H6.69179C7.08817 9.16659 7.42944 9.44697 7.50718 9.83649L8.06463 12.6298L9.26551 11.6269C9.5893 11.3565 10.0638 11.3716 10.3697 11.6621L13.6267 14.7543C13.6316 14.7589 13.6365 14.7637 13.6413 14.7685C14.0949 15.2208 14.8688 14.971 14.9739 14.3389L16.6641 4.17721ZM16.1989 2.57669C17.3668 2.20829 18.5119 3.20498 18.3105 4.41574L16.6143 14.6129C16.2876 16.577 13.8881 17.3539 12.4762 15.9578L10.2596 13.8533C9.44662 14.205 8.62879 14.6593 7.80014 14.9524C7.62369 15.0148 7.42842 15.0167 7.24655 14.9524C6.97008 14.8546 6.76544 14.6181 6.70794 14.33L6.0101 10.8333H3.66383C2.44187 10.8333 1.77493 9.8794 1.67963 8.9921C1.58541 8.11485 2.01281 7.05157 3.13525 6.69751L16.1989 2.57669Z" fill="#FFFEFE"/>
</svg>