<svg width="16" height="17" viewBox="0 0 16 17" fill="none" xmlns="http://www.w3.org/2000/svg">
<path fill-rule="evenodd" clip-rule="evenodd" d="M2.66634 8.49967C2.66634 5.55416 5.05416 3.16634 7.99967 3.16634C10.9452 3.16634 13.333 5.55416 13.333 8.49967V9.49967C13.333 9.84818 13.2198 10.0868 13.0699 10.2366C12.9201 10.3864 12.6815 10.4997 12.333 10.4997C11.7221 10.4997 11.333 10.0732 11.333 9.49967V8.49967C11.333 9.40311 10.9736 10.2226 10.39 10.823C10.7914 11.4291 11.4779 11.833 12.333 11.833C12.9845 11.833 13.5792 11.6129 14.0127 11.1794C14.4463 10.7459 14.6663 10.1512 14.6663 9.49967V8.49967C14.6663 4.81778 11.6816 1.83301 7.99967 1.83301C4.31778 1.83301 1.33301 4.81778 1.33301 8.49967C1.33301 12.1816 4.31778 15.1663 7.99967 15.1663C9.10044 15.1663 10.1407 14.899 11.0573 14.4252C11.3844 14.2561 11.5124 13.8539 11.3434 13.5269C11.1743 13.1998 10.7721 13.0717 10.445 13.2408C9.71325 13.6191 8.88242 13.833 7.99967 13.833C5.05416 13.833 2.66634 11.4452 2.66634 8.49967Z" fill="#ffffff"/>
<path fill-rule="evenodd" clip-rule="evenodd" d="M8.00033 6.50033C6.89576 6.50033 6.00033 7.39576 6.00033 8.50033C6.00033 9.60489 6.89576 10.5003 8.00033 10.5003C9.10489 10.5003 10.0003 9.60489 10.0003 8.50033C10.0003 8.13214 10.2988 7.83366 10.667 7.83366C11.0352 7.83366 11.3337 8.13214 11.3337 8.50033C11.3337 10.3413 9.84127 11.8337 8.00033 11.8337C6.15938 11.8337 4.66699 10.3413 4.66699 8.50033C4.66699 6.65938 6.15938 5.16699 8.00033 5.16699C8.60636 5.16699 9.17651 5.32933 9.66748 5.61334C9.98618 5.7977 10.0951 6.20552 9.91073 6.52423C9.72637 6.84294 9.31855 6.95184 8.99984 6.76748C8.70635 6.5977 8.36572 6.50033 8.00033 6.50033Z" fill="#ffffff"/>
</svg>
