<svg width="20" height="21" viewBox="0 0 20 21" fill="none" xmlns="http://www.w3.org/2000/svg">
<mask id="mask0_3912_17708" style="mask-type:alpha" maskUnits="userSpaceOnUse" x="0" y="0" width="20" height="21">
<rect y="0.5" width="20" height="20" fill="#D9D9D9"/>
</mask>
<g mask="url(#mask0_3912_17708)">
<path d="M7.54804 15C7.1271 15 6.7708 14.8541 6.47915 14.5625C6.18748 14.2708 6.04165 13.9145 6.04165 13.4935V4.00642C6.04165 3.58547 6.18748 3.22917 6.47915 2.9375C6.7708 2.64583 7.1271 2.5 7.54804 2.5H14.5352C14.9561 2.5 15.3124 2.64583 15.6041 2.9375C15.8957 3.22917 16.0416 3.58547 16.0416 4.00642V13.4935C16.0416 13.9145 15.8957 14.2708 15.6041 14.5625C15.3124 14.8541 14.9561 15 14.5352 15H7.54804ZM7.54804 13.75H14.5352C14.5993 13.75 14.658 13.7233 14.7115 13.6699C14.7649 13.6164 14.7916 13.5577 14.7916 13.4935V4.00642C14.7916 3.94231 14.7649 3.88354 14.7115 3.8301C14.658 3.77669 14.5993 3.74998 14.5352 3.74998H7.54804C7.48393 3.74998 7.42517 3.77669 7.37175 3.8301C7.31832 3.88354 7.2916 3.94231 7.2916 4.00642V13.4935C7.2916 13.5577 7.31832 13.6164 7.37175 13.6699C7.42517 13.7233 7.48393 13.75 7.54804 13.75ZM4.6314 17.9166C4.21047 17.9166 3.85417 17.7708 3.5625 17.4791C3.27083 17.1874 3.125 16.8311 3.125 16.4102V5.67308H4.37498V16.4102C4.37498 16.4743 4.40169 16.5331 4.4551 16.5865C4.50853 16.6399 4.5673 16.6666 4.6314 16.6666H12.8685V17.9166H4.6314Z" fill="#ffffff"/>
<path d="M4.6314 17.9164C4.21047 17.9164 3.85417 17.7705 3.5625 17.4789C3.27083 17.1872 3.125 16.8309 3.125 16.41V5.67285H4.37498V16.41C4.37498 16.4741 4.40169 16.5328 4.4551 16.5862C4.50853 16.6397 4.5673 16.6664 4.6314 16.6664H12.8685V17.9164H4.6314Z" fill="#ffffff"/>
</g>
</svg>
