<svg width="20" height="20" viewBox="0 0 20 20" fill="none" xmlns="http://www.w3.org/2000/svg">
<path d="M4.94865 3.33301C3.54198 3.33301 1.66699 5.208 1.66699 6.61466C1.66699 8.42633 3.54199 11.7705 5.41699 13.6455C5.61866 13.8472 6.15282 14.3813 6.35449 14.583C8.22949 16.458 11.5737 18.333 13.3853 18.333C14.792 18.333 16.667 16.458 16.667 15.0514C16.667 13.6455 14.792 11.7705 13.3853 11.7705C12.917 11.7705 11.2212 12.7405 11.042 12.708C9.54699 12.438 7.60449 10.4472 7.29199 8.95801C7.24866 8.75051 8.22949 7.083 8.22949 6.61466C8.22949 5.208 6.35448 3.33301 4.94865 3.33301Z" fill="#ffffff"/>
<path d="M12.8273 2.08441C12.3935 1.92885 11.9139 2.14597 11.7578 2.57855C11.6016 3.01114 11.8457 3.48865 12.2795 3.64422C14.1694 4.32221 15.6617 5.83543 16.3229 7.7255C16.4747 8.15975 16.931 8.37104 17.3664 8.21964C17.8017 8.06823 18.0398 7.61402 17.8881 7.17977C17.0611 4.81552 15.191 2.93211 12.8273 2.08441ZM11.3664 5.33461C11.1675 5.41198 11.0154 5.56588 10.923 5.77635C10.7381 6.19729 10.918 6.68396 11.3404 6.86781C12.1235 7.20972 12.7562 7.82448 13.0882 8.60979C13.2671 9.03323 13.759 9.23039 14.1838 9.05153C14.6087 8.87351 14.8063 8.40931 14.6272 7.98587C14.1292 6.80791 13.1936 5.84623 12.0186 5.33461C11.8074 5.24227 11.5654 5.25641 11.3664 5.33461Z" fill="#ffffff"/>
</svg>
