<svg width="16" height="17" viewBox="0 0 16 17" fill="none" xmlns="http://www.w3.org/2000/svg">
<path fill-rule="evenodd" clip-rule="evenodd" d="M7.33301 3.83333C6.59663 3.83333 5.99967 4.43029 5.99967 5.16667H4.66634C4.66634 3.69391 5.86025 2.5 7.33301 2.5H8.66634C10.1391 2.5 11.333 3.69391 11.333 5.16667H9.99967C9.99967 4.43029 9.40272 3.83333 8.66634 3.83333H7.33301ZM13.333 9.42495L14.2105 9.13246C14.4827 9.04171 14.6663 8.78695 14.6663 8.5V11.8333C14.6663 13.3061 13.4724 14.5 11.9997 14.5H3.99967C2.52692 14.5 1.33301 13.3061 1.33301 11.8333V8.5C1.33301 8.78695 1.51663 9.04171 1.78886 9.13246L2.66634 9.42495V11.8333C2.66634 12.5697 3.26329 13.1667 3.99967 13.1667H11.9997C12.7361 13.1667 13.333 12.5697 13.333 11.8333V9.42495Z" fill="#fff"/>
<path fill-rule="evenodd" clip-rule="evenodd" d="M3.99967 6.50033C3.26329 6.50033 2.66634 7.09728 2.66634 7.83366V8.01982L6.10231 9.16514C7.33391 9.57568 8.66544 9.57568 9.89704 9.16514L13.333 8.01982V7.83366C13.333 7.09728 12.7361 6.50033 11.9997 6.50033H3.99967ZM1.33301 7.83366C1.33301 6.3609 2.52692 5.16699 3.99967 5.16699H11.9997C13.4724 5.16699 14.6663 6.3609 14.6663 7.83366V8.50033C14.6663 8.78728 14.4827 9.04204 14.2105 9.13278L10.3187 10.4301C8.81339 10.9318 7.18596 10.9318 5.68067 10.4301L1.78886 9.13278C1.51663 9.04204 1.33301 8.78728 1.33301 8.50033V7.83366Z" fill="#fff"/>
</svg>
